<svg class="icon" viewBox="0 0 1024 1024" version="1.1" xmlns="http://www.w3.org/2000/svg" width="200" height="200"><path d="M718.4 536l102.4-176V41.6L544 200l-102.4 176-248 115.2 136 78.4-38.4 68.8-3.2 94.4L488 848l80-49.6 38.4-68.8 137.6 80z" fill="#FFDC32"></path><path d="M700.8 110.4l120-68.8v137.6z" fill="#717069"></path><path d="M820.8 382.4c-12.8 0-22.4-9.6-22.4-22.4V80l-243.2 140.8c-11.2 6.4-24 3.2-30.4-8-6.4-11.2-3.2-24 8-30.4l249.6-144c12.8-8 27.2-8 40 0s20.8 20.8 20.8 35.2v288c0 11.2-9.6 20.8-22.4 20.8z" fill="#3E3A34"></path><path d="M568 820.8c-3.2 0-8-1.6-11.2-3.2l-276.8-160c-4.8-3.2-9.6-8-9.6-12.8-1.6-6.4 0-11.2 1.6-17.6l252.8-438.4c6.4-11.2 19.2-14.4 30.4-8s14.4 19.2 8 30.4L321.6 630.4 560 768l241.6-419.2c6.4-11.2 19.2-14.4 30.4-8s14.4 19.2 8 30.4L587.2 809.6c-3.2 4.8-8 9.6-12.8 9.6-3.2 1.6-4.8 1.6-6.4 1.6z" fill="#3E3A34"></path><path d="M488 870.4c-3.2 0-8-1.6-11.2-3.2L276.8 752c-6.4-4.8-11.2-11.2-11.2-20.8l3.2-94.4c0-12.8 11.2-22.4 22.4-20.8 12.8 0 22.4 11.2 20.8 22.4l-1.6 81.6 176 102.4 68.8-43.2c11.2-6.4 24-3.2 30.4 6.4 6.4 11.2 3.2 24-6.4 30.4l-80 49.6c-3.2 3.2-8 4.8-11.2 4.8zM315.2 934.4c-3.2 0-8-1.6-11.2-3.2-11.2-6.4-14.4-19.2-8-30.4l28.8-49.6c6.4-11.2 19.2-14.4 30.4-8s14.4 19.2 8 30.4l-28.8 49.6c-4.8 8-11.2 11.2-19.2 11.2zM432 995.2c-11.2 0-22.4-9.6-22.4-20.8l-3.2-64c0-12.8 8-22.4 20.8-24 12.8 0 22.4 8 24 20.8l3.2 64c1.6 12.8-8 24-22.4 24 1.6 0 1.6 0 0 0zM203.2 862.4c-8 0-16-4.8-19.2-12.8-4.8-11.2-1.6-24 9.6-30.4l56-28.8c11.2-4.8 24-1.6 30.4 9.6 4.8 11.2 1.6 24-9.6 30.4l-56 28.8c-4.8 3.2-8 3.2-11.2 3.2zM329.6 592c-3.2 0-8-1.6-11.2-3.2L212.8 528c-12.8-8-20.8-22.4-20.8-36.8 0-16 9.6-28.8 24-35.2L432 356.8c9.6-4.8 19.2-1.6 25.6 4.8 6.4 6.4 8 17.6 3.2 25.6l-112 193.6c-3.2 8-11.2 11.2-19.2 11.2z m-88-99.2l80 46.4 65.6-113.6-145.6 67.2zM721.6 816c-6.4 0-14.4-1.6-20.8-4.8l-105.6-60.8c-4.8-3.2-9.6-8-9.6-12.8-1.6-6.4 0-11.2 1.6-17.6l112-193.6c4.8-8 14.4-12.8 24-11.2 9.6 1.6 16 9.6 17.6 19.2l22.4 236.8c1.6 16-6.4 30.4-19.2 38.4-6.4 4.8-14.4 6.4-22.4 6.4z m-84.8-94.4l80 46.4-14.4-160-65.6 113.6zM560 561.6c-12.8 0-24-3.2-35.2-9.6-16-9.6-28.8-24-33.6-43.2-4.8-17.6-3.2-36.8 6.4-54.4l14.4-25.6c17.6-32 51.2-36.8 89.6-14.4 17.6 9.6 28.8 20.8 35.2 35.2 8 16 6.4 33.6-3.2 51.2l-14.4 25.6c-9.6 16-24 28.8-43.2 33.6-3.2 1.6-9.6 1.6-16 1.6z m-19.2-36.8c19.2 11.2 43.2 4.8 54.4-14.4l14.4-25.6c3.2-6.4 12.8-22.4-20.8-43.2-35.2-19.2-44.8-3.2-48 3.2l-14.4 25.6c-4.8 9.6-6.4 19.2-3.2 30.4 1.6 11.2 8 19.2 17.6 24zM656 337.6c-4.8 0-9.6-3.2-11.2-8L625.6 256c-1.6-6.4 1.6-12.8 8-14.4 6.4-1.6 12.8 1.6 14.4 8l16 62.4 62.4-16c6.4-1.6 12.8 1.6 14.4 8 1.6 6.4-1.6 12.8-8 14.4l-72 19.2H656z" fill="#3E3A34"></path><path d="M747.2 390.4c-1.6 0-3.2 0-4.8-1.6-3.2-1.6-4.8-3.2-4.8-6.4l-19.2-72c-1.6-6.4 1.6-12.8 8-14.4 6.4-1.6 12.8 1.6 14.4 8l16 62.4 62.4-16c6.4-1.6 12.8 1.6 14.4 8 1.6 6.4-1.6 12.8-8 14.4l-72 19.2c-3.2-1.6-4.8-1.6-6.4-1.6zM563.2 284.8c-4.8 0-9.6-3.2-11.2-8l-19.2-72c-1.6-6.4 1.6-12.8 8-14.4 6.4-1.6 12.8 1.6 14.4 8l16 62.4 62.4-16c6.4-1.6 12.8 1.6 14.4 8 1.6 6.4-1.6 12.8-8 14.4l-72 19.2c-3.2-1.6-3.2-1.6-4.8-1.6z" fill="#3E3A34"></path><path d="M323.2 724.8c-6.4 0-11.2-4.8-11.2-11.2v-17.6c0-6.4 4.8-11.2 11.2-11.2 6.4 0 11.2 4.8 11.2 11.2v17.6c0 6.4-4.8 11.2-11.2 11.2zM577.6 232c-3.2 0-8-1.6-9.6-4.8-3.2-4.8-1.6-12.8 4.8-16l145.6-84.8c4.8-3.2 12.8-1.6 16 4.8 3.2 4.8 1.6 12.8-4.8 16l-145.6 84.8h-6.4z" fill="#FFFFFF"></path><path d="M748.8 132.8c-3.2 0-8-1.6-9.6-4.8-3.2-4.8-1.6-12.8 4.8-16l33.6-19.2c4.8-3.2 12.8-1.6 16 4.8 3.2 4.8 1.6 12.8-4.8 16l-33.6 19.2h-6.4z" fill="#B4B3A9"></path><path d="M340.8 635.2c-1.6 0-3.2 0-4.8-1.6-4.8-3.2-6.4-9.6-4.8-16l198.4-342.4c3.2-4.8 9.6-6.4 16-4.8 4.8 3.2 6.4 9.6 4.8 16L350.4 628.8c-1.6 3.2-6.4 6.4-9.6 6.4z" fill="#FFFFFF"></path></svg>